<svg xmlns="http://www.w3.org/2000/svg" viewBox="0 0 750 500"><g id="freepik--Stopwatch--inject-64"><rect x="531.79" y="118.26" width="8" height="12.49" transform="translate(151.09 517.68) rotate(-58.71)" style="fill:#263238"></rect><path d="M538,116.12l-8.56,14.08-11.5-7a31.39,31.39,0,0,1,8.56-14.08Z" style="fill:#455a64"></path><path d="M530.83,127.84c-.14.23-2.94-1.2-6.26-3.19s-5.91-3.8-5.77-4,2.94,1.2,6.26,3.2S531,127.62,530.83,127.84Z" style="fill:#263238"></path><path d="M532.46,125.16c-.15.22-3-1.35-6.3-3.48s-5.94-4-5.85-4.17,3,1.23,6.37,3.36S532.6,124.94,532.46,125.16Z" style="fill:#263238"></path><path d="M534.63,121.59c-.14.22-3-1.38-6.34-3.55s-6-4.1-5.87-4.28,3,1.3,6.39,3.48S534.77,121.37,534.63,121.59Z" style="fill:#263238"></path><path d="M536.59,118.26c-.14.23-2.94-1.24-6.25-3.27s-5.88-3.86-5.75-4.08,2.94,1.24,6.25,3.27S536.73,118,536.59,118.26Z" style="fill:#263238"></path><rect x="626.53" y="88.85" width="8" height="12.49" transform="translate(120.38 -287.48) rotate(28.29)" style="fill:#263238"></rect><path d="M639,96.81,624.51,89l6.38-11.85A31.37,31.37,0,0,1,645.4,85Z" style="fill:#455a64"></path><path d="M626.94,90.31c-.23-.12,1-3,2.87-6.42s3.48-6.09,3.71-6-1,3-2.87,6.42S627.17,90.43,626.94,90.31Z" style="fill:#263238"></path><path d="M629.71,91.8c-.23-.13,1.19-3,3.14-6.47s3.69-6.14,3.86-6.06-1.07,3.09-3,6.53S629.94,91.93,629.71,91.8Z" style="fill:#263238"></path><path d="M633.39,93.78c-.23-.13,1.22-3,3.21-6.52s3.78-6.18,4-6.08-1.14,3.09-3.14,6.56S633.62,93.91,633.39,93.78Z" style="fill:#263238"></path><path d="M636.81,95.56c-.23-.12,1.09-3,2.94-6.41s3.55-6.08,3.78-6-1.09,3-2.94,6.41S637,95.69,636.81,95.56Z" style="fill:#263238"></path><rect x="573" y="82.1" width="9.47" height="14.78" transform="translate(0.64 183) rotate(-18.01)" style="fill:#263238"></rect><path d="M586.15,83.63l-18.55,6-4.92-15.15a37.13,37.13,0,0,1,18.55-6Z" style="fill:#BA68C8"></path><path d="M581.47,68.47c.19.13-3.12,3.66-8.65,5.45s-10.27,1-10.19.77,4.62.1,9.89-1.68S581.28,68.23,581.47,68.47Z" style="fill:#263238"></path><path d="M573.72,87.62c-.25.09-1.4-2.76-2.57-6.34s-1.91-6.57-1.66-6.65,1.4,2.76,2.57,6.35S574,87.54,573.72,87.62Z" style="fill:#263238"></path><path d="M577.28,86.56c-.26.09-1.41-2.77-2.58-6.37s-1.92-6.6-1.67-6.68,1.41,2.78,2.58,6.38S577.53,86.48,577.28,86.56Z" style="fill:#263238"></path><path d="M580.79,85.36c-.25.08-1.41-2.78-2.58-6.38s-1.92-6.59-1.67-6.67,1.41,2.77,2.58,6.38S581,85.28,580.79,85.36Z" style="fill:#263238"></path><path d="M583.73,84.4c-.26.08-1.49-3-2.75-6.9s-2.09-7.12-1.84-7.2,1.48,3,2.75,6.9S584,84.32,583.73,84.4Z" style="fill:#263238"></path><path d="M570.36,88.65c-.25.08-1.48-3-2.75-6.91s-2.09-7.12-1.84-7.2,1.48,3,2.75,6.91S570.61,88.57,570.36,88.65Z" style="fill:#263238"></path><circle cx="598.83" cy="158.06" r="68.91" transform="translate(263.5 678.76) rotate(-72)" style="fill:#BA68C8"></circle><circle cx="598.66" cy="157.54" r="57.87" transform="translate(417.01 749.32) rotate(-87.68)" style="fill:#fafafa"></circle><path d="M653.7,139.64s-.15-.28-.39-.86-.58-1.46-1-2.55c-.22-.57-.47-1.2-.75-1.88s-.7-1.4-1.1-2.19a42.89,42.89,0,0,0-3-5.3,55.16,55.16,0,0,0-10.85-12.59,57.8,57.8,0,0,0-45.31-13.71,54,54,0,0,0-7.17,1.46c-1.19.34-2.42.61-3.61,1L577,104.4c-.59.24-1.21.44-1.79.71l-1.73.88c-1.15.59-2.34,1.14-3.48,1.79a63.11,63.11,0,0,0-12.69,10c-.95,1-1.82,2.09-2.74,3.14a29.75,29.75,0,0,0-2.55,3.34,65.48,65.48,0,0,0-4.49,7.28,67.17,67.17,0,0,0-3.29,8.07,55.53,55.53,0,0,0-2.91,17.58,56.87,56.87,0,0,0,11.2,34.45,55.35,55.35,0,0,0,12.69,12.51,52.58,52.58,0,0,0,15.31,7.84,29.19,29.19,0,0,0,4,1.2c1.36.31,2.7.68,4.06.93a59.52,59.52,0,0,0,8.14.81,60.45,60.45,0,0,0,8-.22c1.3-.15,2.59-.41,3.87-.6l1.91-.31c.63-.12,1.25-.32,1.87-.48l3.67-1c1.21-.37,2.36-.88,3.52-1.3a52.94,52.94,0,0,0,6.65-3,57.84,57.84,0,0,0,28.59-37.73,55.5,55.5,0,0,0,1.37-16.57,43.87,43.87,0,0,0-.69-6.05c-.15-.87-.25-1.68-.4-2.41s-.35-1.37-.5-2c-.29-1.14-.52-2-.68-2.67s-.19-.92-.19-.92.11.3.29.89.43,1.52.76,2.65c.17.59.35,1.24.55,2s.29,1.54.45,2.42a41.39,41.39,0,0,1,.78,6.07,54.8,54.8,0,0,1-1.22,16.7,58.13,58.13,0,0,1-28.73,38.31,53.59,53.59,0,0,1-6.73,3.11c-1.18.44-2.35.95-3.57,1.33l-3.72,1c-.63.16-1.25.36-1.89.49l-1.94.32c-1.3.2-2.61.46-3.93.61a60.49,60.49,0,0,1-8.1.25,59.82,59.82,0,0,1-8.27-.81c-1.38-.25-2.74-.62-4.13-.93a32,32,0,0,1-4.1-1.21,54,54,0,0,1-15.57-7.95,56.58,56.58,0,0,1-12.91-12.71,57.69,57.69,0,0,1-11.38-35,56.69,56.69,0,0,1,3-17.86,67.11,67.11,0,0,1,3.36-8.2,66.55,66.55,0,0,1,4.56-7.39,32,32,0,0,1,2.6-3.39c.94-1.06,1.83-2.16,2.79-3.18a61.78,61.78,0,0,1,6.21-5.52,63.84,63.84,0,0,1,6.7-4.56c1.16-.65,2.37-1.21,3.54-1.81l1.76-.88c.59-.28,1.21-.48,1.81-.72l3.61-1.37c1.21-.41,2.45-.68,3.66-1a55.42,55.42,0,0,1,7.28-1.44A58.11,58.11,0,0,1,637,113.87a54.61,54.61,0,0,1,10.81,12.8A40.55,40.55,0,0,1,650.7,132c.38.8.77,1.52,1.06,2.21s.5,1.33.71,1.91c.4,1.11.71,2,.94,2.59S653.7,139.64,653.7,139.64Z" style="fill:#263238"></path><path d="M645.38,141.4c-5,1.71-9.16,2.8-9.29,2.43s3.74-2.23,8.66-4.16,9.07-3,9.28-2.43S650.37,139.69,645.38,141.4Z" style="fill:#263238"></path><path d="M643.23,178.91c-4.76-2.3-8.48-4.45-8.32-4.8s4.23,1,9.08,3.13,8.57,4.24,8.31,4.81S648,181.21,643.23,178.91Z" style="fill:#263238"></path><path d="M615.31,204.08c-1.76-5-2.89-9.13-2.53-9.26s2.27,3.71,4.25,8.61,3.11,9,2.53,9.26S617.08,209.05,615.31,204.08Z" style="fill:#263238"></path><path d="M577.77,202.34c2.25-4.78,4.36-8.53,4.72-8.37s-1,4.24-3,9.11-4.15,8.62-4.71,8.36S575.53,207.11,577.77,202.34Z" style="fill:#263238"></path><path d="M552.3,174.7c5-1.82,9.09-3,9.23-2.62s-3.68,2.3-8.56,4.33-9,3.21-9.24,2.63S547.35,176.52,552.3,174.7Z" style="fill:#263238"></path><path d="M553.63,137.15c4.8,2.19,8.57,4.26,8.42,4.62s-4.25-1-9.15-2.94-8.66-4.05-8.41-4.62S548.83,135,553.63,137.15Z" style="fill:#263238"></path><path d="M581,111.38c1.87,4.93,3.09,9.05,2.73,9.2s-2.35-3.67-4.43-8.52-3.3-9-2.73-9.2S579.11,106.44,581,111.38Z" style="fill:#263238"></path><path d="M618.55,112.29c-2.14,4.82-4.17,8.61-4.53,8.46s.91-4.26,2.84-9.17,3.95-8.7,4.53-8.46S620.69,107.46,618.55,112.29Z" style="fill:#263238"></path><path d="M644.62,139.35c-4.92,1.93-9,3.2-9.18,2.83s3.65-2.38,8.48-4.52,8.93-3.4,9.17-2.83S649.53,137.43,644.62,139.35Z" style="fill:#263238"></path><path d="M557.93,104.94a27.53,27.53,0,0,1-2.44,2.21,71.89,71.89,0,0,0-6.29,6.33,66.67,66.67,0,0,0-16,54.6,73.1,73.1,0,0,0,1.88,8.72,30.26,30.26,0,0,1,.86,3.17s-.16-.25-.37-.77-.53-1.28-.85-2.29a58.8,58.8,0,0,1-2.18-8.73A64.74,64.74,0,0,1,548.7,113a58.12,58.12,0,0,1,6.55-6.16c.82-.69,1.51-1.14,2-1.48S557.91,104.91,557.93,104.94Z" style="fill:#fff"></path><path d="M575.07,95.44c.09.26-2.69,1.55-6.09,3.17s-6.17,3-6.31,2.72,2.45-2,5.9-3.58S575,95.2,575.07,95.44Z" style="fill:#fff"></path><g style="opacity:0.4"><path d="M565.42,204.92s43.16,35.74,79.91-1.7c38.36-39.08-5.09-85.95-5.09-85.95s36,36.9.32,80.2c-8.89,10.78-21.1,14.76-30.71,16.85C585.28,219.67,565.42,204.92,565.42,204.92Z"></path></g><path d="M604.49,123.3a197.4,197.4,0,0,1,7.13,24.43,31.65,31.65,0,0,1,1,9.12A11.91,11.91,0,0,1,609,165c-2.31,2-5.93,2.67-8.53,1Z" style="fill:#e0e0e0"></path><polygon points="596.05 153.58 605.1 113.4 605.39 155.35 599.82 159.2 596.05 153.58" style="fill:#BA68C8"></polygon><g style="opacity:0.4"><polygon points="605.1 113.4 601.46 152.64 605.39 155.35 605.1 113.4"></polygon></g><path d="M606.26,157.11a6.77,6.77,0,1,1-8.53-4.35A6.77,6.77,0,0,1,606.26,157.11Z" style="fill:#fafafa"></path><path d="M606.26,157.11c-.08,0-.27-.55-.87-1.41a6.75,6.75,0,0,0-3.45-2.57,6.36,6.36,0,1,0,3.17,9.73,6.81,6.81,0,0,0,1.28-4.1c0-1-.21-1.63-.13-1.65a3.31,3.31,0,0,1,.5,1.62,6.74,6.74,0,0,1-1.1,4.51,7.08,7.08,0,0,1-6.08,3.16,7.18,7.18,0,0,1-4.19-12.88,7.09,7.09,0,0,1,6.78-1,6.75,6.75,0,0,1,3.54,3A3.33,3.33,0,0,1,606.26,157.11Z" style="fill:#263238"></path><path d="M604.62,157.64a5,5,0,1,1-6.35-3.23A5,5,0,0,1,604.62,157.64Z" style="fill:#455a64"></path><path d="M562.88,40.15s0,.09-.07.27l-.24.78a24.75,24.75,0,0,1-1.15,3,31.5,31.5,0,0,1-13.79,14.64,29.79,29.79,0,0,1-9.34,3.12A31.77,31.77,0,0,1,516,57.14l.36-.32c3.88,7.81,3.87,18.34-.89,27.07a27.16,27.16,0,0,1-7.5,8.75,30.13,30.13,0,0,1-29.77,3.53l.23-.39A25.13,25.13,0,0,1,488,110.21a24.63,24.63,0,0,1-4.91,21.06,17.81,17.81,0,0,1-2.12,2.24s0,0,.12-.15l.4-.43c.36-.38.87-1,1.5-1.74a25.09,25.09,0,0,0,4.07-7.62,23.89,23.89,0,0,0,.58-13.27,24.77,24.77,0,0,0-9.54-14.15l-1.8-1.3,2,.91A29.27,29.27,0,0,0,497.86,97a29.71,29.71,0,0,0,9.75-4.78A26.72,26.72,0,0,0,515,83.64c4.68-8.57,4.7-18.94.91-26.6l-.41-.82.77.51a31.41,31.41,0,0,0,22,4.79,30.46,30.46,0,0,0,16-7.87,32.06,32.06,0,0,0,7-9.54,28.91,28.91,0,0,0,1.22-2.94l.28-.77C562.83,40.23,562.87,40.14,562.88,40.15Z" style="fill:#263238"></path><path d="M619.12,55a8.16,8.16,0,0,1-1.37.39,10.66,10.66,0,0,1-1.66.32,19.11,19.11,0,0,1-2.21.21l-1.3,0c-.45,0-.92-.05-1.41-.07a25.69,25.69,0,0,1-3.08-.39,29,29,0,0,1-6.75-2.23,29.5,29.5,0,0,1-5.93-3.93,24,24,0,0,1-2.2-2.19c-.32-.36-.65-.7-.92-1.06l-.78-1a17.44,17.44,0,0,1-1.2-1.88,9.73,9.73,0,0,1-.77-1.49,7,7,0,0,1-.54-1.32c.11-.06.86,1.86,2.81,4.47l.79,1c.27.35.61.67.93,1a24.91,24.91,0,0,0,2.2,2.12,30.4,30.4,0,0,0,5.84,3.82A30,30,0,0,0,608.18,55a27.4,27.4,0,0,0,3,.43c.48,0,.94.09,1.39.1h1.27C617.13,55.47,619.1,54.87,619.12,55Z" style="fill:#263238"></path><path d="M706.22,174.49s-.09.06-.27.15l-.82.39c-.36.16-.81.37-1.32.65s-1.12.58-1.77,1a38.55,38.55,0,0,0-15,16,36.24,36.24,0,0,0-3.28,10.06,38.17,38.17,0,0,0,3.78,24.14l.25.46-.52-.1a32.8,32.8,0,0,0-19.79,2.41,31.49,31.49,0,0,0-8.1,5.3,32.37,32.37,0,0,0-5.9,7.23,32.74,32.74,0,0,0-4.72,16.5v.53l-.39-.36a27.47,27.47,0,0,0-8.28-5.19,32.28,32.28,0,0,0-4.35-1.4,33.19,33.19,0,0,0-4.28-.66,31.43,31.43,0,0,0-14.32,2,28.92,28.92,0,0,0-8.12,4.74c-.85.69-1.4,1.33-1.83,1.71l-.47.44c-.1.1-.16.15-.17.14a33.39,33.39,0,0,1,2.38-2.4,28.12,28.12,0,0,1,8.11-4.89,31.69,31.69,0,0,1,14.45-2.09,35.88,35.88,0,0,1,4.34.65,33.17,33.17,0,0,1,4.42,1.4,27.91,27.91,0,0,1,8.44,5.25l-.4.17a33.23,33.23,0,0,1,10.75-24.11,31.63,31.63,0,0,1,8.22-5.4,33.23,33.23,0,0,1,20.11-2.42l-.27.36a38.42,38.42,0,0,1-3.77-24.44,36.13,36.13,0,0,1,3.37-10.16,38.88,38.88,0,0,1,5.12-7.65,37.86,37.86,0,0,1,10.11-8.3A28.35,28.35,0,0,1,706.22,174.49Z" style="fill:#263238"></path><path d="M696.39,148a2.56,2.56,0,0,1-.34-.39,10.23,10.23,0,0,1-.86-1.21,15,15,0,0,1-1.09-13.65,15.4,15.4,0,0,1,7.39-7.79l0,.46a45.4,45.4,0,0,1-11.84-4.66A28.2,28.2,0,0,1,678.78,110a22,22,0,0,1-2.46-12.28,17.26,17.26,0,0,1,2.76-8l.8-1.07c.24-.31.49-.53.66-.73a5.38,5.38,0,0,1,.58-.56,5.19,5.19,0,0,1-.5.63c-.16.21-.39.44-.62.75s-.47.69-.75,1.09a17.53,17.53,0,0,0-2.56,7.92,21.82,21.82,0,0,0,2.51,12A28,28,0,0,0,690,120.3a46.08,46.08,0,0,0,11.7,4.63l.66.17-.62.29a15.08,15.08,0,0,0-7.21,7.51,14.62,14.62,0,0,0-1,8.23,15.37,15.37,0,0,0,1.84,5.17C696,147.42,696.42,148,696.39,148Z" style="fill:#263238"></path></g></svg>